<svg width="34" height="50" viewBox="0 0 34 50" fill="none" xmlns="http://www.w3.org/2000/svg">
<g clip-path="url(#clip0_1935_225)">
<mask id="mask0_1935_225" style="mask-type:luminance" maskUnits="userSpaceOnUse" x="0" y="0" width="34" height="50">
<path d="M33.3333 0H0V50H33.3333V0Z" fill="white"/>
</mask>
<g mask="url(#mask0_1935_225)">
<path d="M16.667 25.0001C16.667 22.7899 17.545 20.6703 19.1078 19.1075C20.6706 17.5447 22.7902 16.6667 25.0003 16.6667C27.2105 16.6667 29.3301 17.5447 30.8929 19.1075C32.4557 20.6703 33.3337 22.7899 33.3337 25.0001C33.3337 27.2103 32.4557 29.3298 30.8929 30.8926C29.3301 32.4554 27.2105 33.3334 25.0003 33.3334C22.7902 33.3334 20.6706 32.4554 19.1078 30.8926C17.545 29.3298 16.667 27.2103 16.667 25.0001Z" fill="#1ABCFE"/>
<path d="M0 41.6666C0 39.4564 0.877974 37.3368 2.44078 35.774C4.00358 34.2112 6.12319 33.3333 8.33333 33.3333H16.6667V41.6666C16.6667 43.8768 15.7887 45.9963 14.2259 47.5591C12.6631 49.1219 10.5435 49.9999 8.33333 49.9999C6.12319 49.9999 4.00358 49.1219 2.44078 47.5591C0.877974 45.9963 0 43.8768 0 41.6666Z" fill="#0ACF83"/>
<path d="M16.667 0V16.6667H25.0003C27.2105 16.6667 29.3301 15.7887 30.8929 14.2259C32.4557 12.6631 33.3337 10.5435 33.3337 8.33333C33.3337 6.12319 32.4557 4.00358 30.8929 2.44078C29.3301 0.877974 27.2105 0 25.0003 0H16.667Z" fill="#FF7262"/>
<path d="M0 8.33333C0 10.5435 0.877974 12.6631 2.44078 14.2259C4.00358 15.7887 6.12319 16.6667 8.33333 16.6667H16.6667V0H8.33333C6.12319 0 4.00358 0.877974 2.44078 2.44078C0.877974 4.00358 0 6.12319 0 8.33333Z" fill="#F24E1E"/>
<path d="M0 25.0001C0 27.2103 0.877974 29.3298 2.44078 30.8926C4.00358 32.4554 6.12319 33.3334 8.33333 33.3334H16.6667V16.6667H8.33333C6.12319 16.6667 4.00358 17.5447 2.44078 19.1075C0.877974 20.6703 0 22.7899 0 25.0001Z" fill="#A259FF"/>
</g>
</g>
<defs>
<clipPath id="clip0_1935_225">
<rect width="33.3333" height="50" fill="white"/>
</clipPath>
</defs>
</svg>
