<svg width="50" height="53" viewBox="0 0 50 53" fill="none" xmlns="http://www.w3.org/2000/svg">
<g clip-path="url(#clip0_1935_223)">
<path fill-rule="evenodd" clip-rule="evenodd" d="M48.5421 11.8113C48.5601 11.878 48.5694 11.9467 48.5695 12.0157V22.7481C48.5695 22.8859 48.5332 23.0212 48.4641 23.1404C48.3951 23.2596 48.2958 23.3584 48.1763 23.427L39.1684 28.6132V38.8926C39.1684 39.1724 39.0198 39.4306 38.7772 39.5715L19.974 50.3958C19.931 50.4202 19.884 50.4359 19.8371 50.4525C19.8195 50.4584 19.8028 50.4691 19.7843 50.474C19.6528 50.5087 19.5146 50.5087 19.3832 50.474C19.3617 50.4682 19.3421 50.4564 19.3216 50.4486C19.2785 50.433 19.2335 50.4193 19.1925 50.3958L0.39322 39.5715C0.273794 39.5029 0.174563 39.404 0.105528 39.2848C0.0364936 39.1656 9.46265e-05 39.0304 0 38.8926L0 6.69554C0 6.62511 0.0097816 6.55664 0.0273885 6.49012C0.0332574 6.46762 0.0469517 6.44708 0.0547769 6.42459C0.0694493 6.3835 0.0831436 6.34144 0.104663 6.30329C0.119335 6.27786 0.140855 6.25732 0.158462 6.23384C0.180959 6.20254 0.201501 6.17026 0.227911 6.14288C0.250409 6.12038 0.279754 6.10375 0.305186 6.08419C0.333552 6.06071 0.358985 6.03528 0.391264 6.01669L9.79235 0.604537C9.91138 0.536047 10.0463 0.5 10.1836 0.5C10.3209 0.5 10.4559 0.536047 10.5749 0.604537L19.975 6.01669H19.977C20.0083 6.03626 20.0347 6.06071 20.063 6.08321C20.0885 6.10277 20.1168 6.12038 20.1393 6.1419C20.1667 6.17026 20.1863 6.20254 20.2098 6.23384C20.2264 6.25732 20.2489 6.27786 20.2626 6.30329C20.2851 6.34242 20.2978 6.3835 20.3134 6.42459C20.3213 6.44708 20.335 6.46762 20.3408 6.4911C20.3588 6.55776 20.368 6.62649 20.3682 6.69554V26.8055L28.2013 22.2952V12.0148C28.2013 11.9463 28.2111 11.8768 28.2287 11.8113C28.2355 11.7878 28.2483 11.7673 28.2561 11.7448C28.2717 11.7037 28.2854 11.6617 28.307 11.6235C28.3216 11.5981 28.3431 11.5775 28.3598 11.5541C28.3833 11.5228 28.4028 11.4905 28.4302 11.4631C28.4527 11.4406 28.4811 11.424 28.5065 11.4044C28.5358 11.3809 28.5613 11.3555 28.5926 11.3369L37.9946 5.92475C38.1136 5.85616 38.2486 5.82006 38.3859 5.82006C38.5233 5.82006 38.6582 5.85616 38.7772 5.92475L48.1773 11.3369C48.2105 11.3565 48.236 11.3809 48.2653 11.4034C48.2898 11.423 48.3181 11.4406 48.3406 11.4621C48.368 11.4905 48.3876 11.5228 48.4111 11.5541C48.4287 11.5775 48.4502 11.5981 48.4639 11.6235C48.4864 11.6617 48.4991 11.7037 48.5148 11.7448C48.5236 11.7673 48.5363 11.7878 48.5421 11.8113ZM47.0025 22.2952V13.3705L43.713 15.2642L39.1684 17.8808V26.8055L47.0035 22.2952H47.0025ZM37.6024 38.4397V29.5091L33.1322 32.0621L20.3672 39.3475V48.3622L37.6024 38.4397ZM1.56701 8.05029V38.4397L18.8002 48.3612V39.3485L9.79724 34.2532L9.79431 34.2513L9.7904 34.2493C9.76007 34.2317 9.73464 34.2063 9.70628 34.1847C9.68182 34.1652 9.65346 34.1495 9.63194 34.128L9.62998 34.1251C9.60455 34.1006 9.58694 34.0703 9.56542 34.0429C9.54586 34.0165 9.52238 33.994 9.50673 33.9666L9.50575 33.9637C9.48815 33.9343 9.47739 33.8991 9.46467 33.8659C9.45195 33.8365 9.43533 33.8091 9.4275 33.7778C9.41772 33.7407 9.41576 33.7006 9.41185 33.6624C9.40794 33.6331 9.40011 33.6037 9.40011 33.5744V33.5724V12.5606L4.85656 9.94303L1.56701 8.05029ZM10.1846 2.1872L2.35247 6.69554L10.1826 11.2039L18.0138 6.69456L10.1826 2.1872H10.1846ZM14.2577 30.323L18.8012 27.7074V8.05029L15.5117 9.944L10.9671 12.5606V32.2177L14.2577 30.323ZM38.3859 7.50741L30.5548 12.0157L38.3859 16.5241L46.2161 12.0148L38.3859 7.50741ZM37.6024 17.8808L33.0579 15.2642L29.7683 13.3705V22.2952L34.3119 24.9108L37.6024 26.8055V17.8808ZM19.5828 37.9927L31.0693 31.4351L36.8111 28.1583L28.9858 23.6529L19.976 28.8401L11.7643 33.5675L19.5828 37.9927Z" fill="#FF2D20"/>
</g>
<defs>
<clipPath id="clip0_1935_223">
<rect width="50" height="52" fill="white" transform="translate(0 0.5)"/>
</clipPath>
</defs>
</svg>
